<svg xmlns="http://www.w3.org/2000/svg" xmlns:xlink="http://www.w3.org/1999/xlink" viewBox="0 0 32 32" version="1.1"><path d="M14.5 10c-2.266 0-3.785 1.766-4.3 2.758l-2.684 5.687-3.704-7.675a1.502 1.502 0 0 0-2.625 1.46l5 10c.266.473.762.766 1.305.77a1.53 1.53 0 0 0 1.313-.754l4.023-8.055C12.836 14.18 13.496 13 14.5 13c1.215 0 1.465.992 1.5 1.5v7c0 .309.094.598.254.84.055.078.117.152.183.223a1.51 1.51 0 0 0 2.31-.223c.05-.082.097-.168.136-.258.074-.176.117-.375.117-.582v-7a1.5 1.5 0 0 1 3 0v7a1.5 1.5 0 0 0 3 0v-7a1.5 1.5 0 0 1 3 0v7a1.5 1.5 0 0 0 3 0v-7c0-2.48-2.02-4.5-4.5-4.5a4.47 4.47 0 0 0-3 1.172 4.47 4.47 0 0 0-3-1.172 4.439 4.439 0 0 0-2.984 1.16C16.805 10.484 15.828 10 14.5 10z" id="surface1"/></svg>
